<svg viewBox="0 0 41 41" xmlns="http://www.w3.org/2000/svg" data-logo="logo">
    <g transform="translate(0, 0) rotate(0)" id="logogram"><path fill="#FF4869" d="M9.31317 4.38058C7.88251 5.38094 6.58881 6.56369 5.46576 7.89511C10.0551 7.46904 15.8856 8.16476 22.6548 11.5494C29.8834 15.1636 35.7042 15.2858 39.7552 14.5044C39.3876 13.3915 38.9248 12.3219 38.3767 11.3051C33.7394 11.7942 27.7944 11.1468 20.866 7.68269C16.4664 5.48289 12.5882 4.57672 9.31317 4.38058ZM35.6678 7.44936C32.0057 3.35771 26.6838 0.782715 20.7604 0.782715C19.0209 0.782715 17.3331 1.00482 15.7241 1.42219C17.9033 2.0168 20.2183 2.8867 22.6548 4.10498C27.7274 6.64124 32.1068 7.45787 35.6678 7.44936ZM40.6213 18.4108C35.7273 19.3772 28.9692 19.1787 20.866 15.1271C13.2904 11.3393 7.26087 11.387 3.19434 12.2907C2.98444 12.3373 2.77948 12.3863 2.57947 12.4373C2.04706 13.5952 1.62207 14.8128 1.31714 16.0772C1.64282 15.9902 1.97937 15.9075 2.3266 15.8303C7.26001 14.734 14.2305 14.7816 22.6548 18.9938C30.2305 22.7816 36.26 22.7339 40.3266 21.8302C40.4659 21.7993 40.6032 21.7673 40.7382 21.7343C40.753 21.419 40.7604 21.1017 40.7604 20.7827C40.7604 19.9802 40.7132 19.1887 40.6213 18.4108ZM40.0852 25.955C35.2387 26.8023 28.6774 26.4771 20.866 22.5715C13.2904 18.7837 7.26087 18.8314 3.19434 19.7351C2.29169 19.9356 1.47968 20.1799 0.763367 20.4378C0.761414 20.5525 0.760437 20.6675 0.760437 20.7827C0.760437 31.8284 9.71473 40.7827 20.7604 40.7827C30.0175 40.7827 37.8057 34.4936 40.0852 25.955Z" clip-rule="evenodd" fill-rule="evenodd"></path></g>
    <g transform="translate(41, 20.5)" id="logotype"></g>

</svg>